<svg version="1.1" id="Layer_1" xmlns="http://www.w3.org/2000/svg" xmlns:xlink="http://www.w3.org/1999/xlink" x="0px" y="0px"
	 width="100%" viewBox="0 0 100 100" enable-background="new 0 0 100 100" xml:space="preserve">
<path fill="#FFFFFF" opacity="1.000000" stroke="none" 
	d="
M1.000000,47.000000 
	C1.000000,31.701498 1.000000,16.402996 1.000000,1.052247 
	C34.222713,1.052247 67.445534,1.052247 101.000000,1.052247 
	C101.000000,16.352636 101.000000,31.707659 100.644119,47.441292 
	C88.707664,42.768902 77.127083,37.717907 65.100479,32.472374 
	C65.100479,35.806641 65.100479,38.113453 65.100479,40.463837 
	C73.978874,44.136589 82.804474,47.787502 92.021919,51.600510 
	C84.854965,54.475662 77.977142,57.338528 71.020477,59.994911 
	C64.723686,62.399326 64.082504,63.429516 65.858810,70.371475 
	C77.615372,65.228912 89.307686,60.114460 101.000000,55.000000 
	C101.000000,70.298134 101.000000,85.596260 101.000000,100.947197 
	C67.778465,100.947197 34.556828,100.947197 1.000000,100.947197 
	C1.000000,86.314140 1.000000,71.625725 1.387252,56.471176 
	C13.328875,60.790913 24.883245,65.576790 36.587845,70.424889 
	C37.642941,65.014946 36.950603,62.179432 31.518085,60.586983 
	C24.199411,58.441635 17.330727,54.761177 9.948985,51.602654 
	C13.595207,49.970448 16.863106,48.404430 20.211981,47.036674 
	C23.764994,45.585548 27.385204,44.296036 30.993347,42.983437 
	C37.351711,40.670341 37.984364,39.493599 36.128223,32.799294 
	C30.787527,35.002174 25.483364,37.227009 20.150261,39.380169 
	C13.779776,41.952152 7.384524,44.462791 1.000000,47.000000 
M53.965366,29.254869 
	C49.143684,46.024212 44.322002,62.793556 39.509254,79.531822 
	C44.449135,80.722519 46.291237,79.516014 47.378994,75.384689 
	C51.963364,57.973186 56.997974,40.680225 61.917580,23.166889 
	C59.552448,23.166889 57.438564,23.166889 55.264427,23.166889 
	C54.819435,25.004982 54.408627,26.701883 53.965366,29.254869 
z"/>
<path fill="#000000" opacity="1.000000" stroke="none" 
	d="
M1.000000,47.449982 
	C7.384524,44.462791 13.779776,41.952152 20.150261,39.380169 
	C25.483364,37.227009 30.787527,35.002174 36.128223,32.799294 
	C37.984364,39.493599 37.351711,40.670341 30.993347,42.983437 
	C27.385204,44.296036 23.764994,45.585548 20.211981,47.036674 
	C16.863106,48.404430 13.595207,49.970448 9.948985,51.602654 
	C17.330727,54.761177 24.199411,58.441635 31.518085,60.586983 
	C36.950603,62.179432 37.642941,65.014946 36.587845,70.424889 
	C24.883245,65.576790 13.328875,60.790913 1.387252,56.002518 
	C1.000000,53.299988 1.000000,50.599972 1.000000,47.449982 
z"/>
<path fill="#000000" opacity="1.000000" stroke="none" 
	d="
M101.000000,54.562500 
	C89.307686,60.114460 77.615372,65.228912 65.858810,70.371475 
	C64.082504,63.429516 64.723686,62.399326 71.020477,59.994911 
	C77.977142,57.338528 84.854965,54.475662 92.021919,51.600510 
	C82.804474,47.787502 73.978874,44.136589 65.100479,40.463837 
	C65.100479,38.113453 65.100479,35.806641 65.100479,32.472374 
	C77.127083,37.717907 88.707664,42.768902 100.644119,47.909950 
	C101.000000,50.041668 101.000000,52.083332 101.000000,54.562500 
z"/>
<path fill="#000000" opacity="1.000000" stroke="none" 
	d="
M53.981590,28.826828 
	C54.408627,26.701883 54.819435,25.004982 55.264427,23.166889 
	C57.438564,23.166889 59.552448,23.166889 61.917580,23.166889 
	C56.997974,40.680225 51.963364,57.973186 47.378994,75.384689 
	C46.291237,79.516014 44.449135,80.722519 39.509254,79.531822 
	C44.322002,62.793556 49.143684,46.024212 53.981590,28.826828 
z"/>
</svg>